<svg xmlns="http://www.w3.org/2000/svg" width="1796" height="356" viewBox="0 0 1796 356" version="1.1">
  <!-- Checkmark (V replacement) in green -->
  <path d="M 526.884 46.074 C 516.112 47.216, 497.622 51.489, 483 56.214 C 412.127 79.118, 348.812 130.844, 299.921 205.787 L 291 219.461 291 153.208 L 291 86.955 272.750 87.227 L 254.500 87.500 254.245 182.750 L 253.990 278 277.374 278 L 300.757 278 309.253 262.631 C 346.608 195.058, 398.870 133.296, 453.239 92.473 C 477.774 74.051, 497.774 62.238, 522.826 51.371 C 530.897 47.871, 536.825 45.065, 536 45.136 C 535.175 45.208, 531.073 45.630, 526.884 46.074" stroke="none" fill="#03a97f" fill-rule="evenodd"/>
  <!-- Main logo text in dark blue with proper counters -->
  <path d="M 71 182.446 L 71 278 90.500 278 L 110 278 110 201.462 L 110 124.924 143.829 125.212 L 177.659 125.500 181.369 128.331 C 192.483 136.812, 194.245 151.425, 185.418 161.915 C 180.101 168.234, 179.046 168.450, 150.862 169 L 125.224 169.500 162.177 223.750 L 199.131 278 220.534 278 L 241.937 278 231.119 263.250 C 204.964 227.590, 188.940 204.666, 189.690 203.981 C 190.135 203.574, 192.148 202.715, 194.162 202.072 C 199.333 200.421, 211.131 191.898, 215.317 186.789 C 220.460 180.512, 225.657 168.958, 227.053 160.699 C 228.539 151.901, 227.744 135.681, 225.450 128 C 219.976 109.673, 206.586 95.993, 188 89.741 C 181.680 87.615, 179.967 87.545, 126.250 87.223 L 71 86.891 71 182.446 M 998.976 88.474 C 990.770 91.113, 984.069 100.058, 984.022 108.434 C 983.977 116.503, 990.974 125.788, 998.723 127.940 C 1003.704 129.323, 1012.852 129.284, 1017.101 127.862 C 1026.282 124.788, 1032.658 115.205, 1031.758 105.832 C 1031.132 99.319, 1026.958 93.369, 1020.787 90.193 C 1014.919 87.173, 1005.361 86.420, 998.976 88.474 M 931 129.578 L 931 161.156 926.780 157.544 C 916.854 149.048, 904.718 145.518, 888 146.265 C 878.708 146.680, 874.964 147.332, 868.500 149.663 C 842.122 159.173, 826.733 182.510, 826.733 213 C 826.733 243.553, 842.359 267.056, 869.064 276.669 C 875.778 279.086, 877.908 279.354, 891 279.423 C 903.769 279.491, 906.317 279.218, 912.348 277.136 C 916.303 275.771, 921.900 272.725, 925.598 269.926 L 932 265.080 932 271.540 L 932 278 950.500 278 L 969 278 969 188 L 969 98 950 98 L 931 98 931 129.578 M 497 106.075 C 473.389 108.292, 453.819 117.723, 438.405 134.311 C 423.565 150.282, 417.132 166.360, 416.264 189.641 C 415.302 215.472, 422.316 235.127, 438.985 253.311 C 449.148 264.397, 465.501 273.865, 482 278.216 C 489.350 280.154, 492.935 280.449, 508.500 280.401 C 529.848 280.336, 536.693 278.888, 552.500 271.098 C 560.238 267.284, 564.310 264.455, 570.500 258.591 L 578.500 251.013 575.379 248.257 C 573.662 246.740, 567.922 241.504, 562.622 236.620 L 552.985 227.740 548.243 232.136 C 536.367 243.143, 526.350 247.174, 510.500 247.325 C 493.983 247.483, 482.560 243.426, 472.361 233.780 C 461.115 223.144, 456 210.663, 456 193.856 C 456 177.071, 460.430 165.014, 470.402 154.657 C 480.231 144.450, 493.792 139.030, 509.500 139.030 C 524.603 139.030, 535.625 143.167, 547.281 153.210 L 553.061 158.191 558.281 153.637 C 561.151 151.133, 566.832 146.010, 570.904 142.252 L 578.308 135.421 575.068 131.731 C 568.262 123.979, 553.481 114.601, 541.886 110.677 C 529.790 106.585, 511.524 104.712, 497 106.075 M 1061.775 134.750 L 1061.500 150.500 1051.750 150.786 L 1042 151.072 1042 165.536 L 1042 180 1052 180 L 1062 180 1062.015 210.750 C 1062.030 243.365, 1062.690 249.552, 1067.067 258.131 C 1072.198 268.190, 1082.411 275.483, 1095.750 278.613 C 1105.142 280.817, 1122.154 280.073, 1131 277.070 C 1142.333 273.224, 1142.061 274.118, 1136.499 258.996 C 1133.661 251.282, 1131.245 246.129, 1130.597 246.408 C 1125.048 248.799, 1118.047 250.166, 1113.878 249.672 C 1107.673 248.937, 1104.578 246.825, 1102.049 241.601 C 1100.130 237.636, 1100 235.554, 1100 208.684 L 1100 180 1116 180 L 1132 180 1132 165.525 L 1132 151.051 1116.250 150.775 L 1100.500 150.500 1100.225 134.750 L 1099.949 119 1081 119 L 1062.051 119 1061.775 134.750 M 660 146.687 C 655.079 147.502, 644.437 151.208, 641 153.303 C 639.075 154.476, 635.362 157.425, 632.750 159.855 L 628 164.274 628 156.137 L 628 148 610 148 L 592 148 592 213 L 592 278 610.944 278 L 629.887 278 630.231 241.250 C 630.534 208.910, 630.789 203.937, 632.363 199.805 C 635.027 192.808, 640.846 186.797, 648.192 183.455 C 653.647 180.973, 655.750 180.579, 663.747 180.542 L 672.995 180.500 672.997 163.250 L 673 146 667.750 146.136 C 664.862 146.211, 661.375 146.459, 660 146.687 M 730.500 147.420 C 709.212 152.335, 692.472 165.077, 684.415 182.500 C 679.551 193.018, 678 200.315, 678 212.684 C 678 225.681, 679.548 232.493, 685.059 243.750 C 693.759 261.524, 711.268 273.989, 733.957 278.561 C 744.242 280.633, 766.084 280.066, 775.430 277.482 C 783.606 275.223, 793.511 270.063, 800.318 264.518 C 806.995 259.080, 807.584 260.848, 794.321 246.540 L 786.155 237.731 779.950 241.875 C 766.834 250.633, 747.078 252.274, 733.205 245.758 C 725.362 242.074, 716.124 231.048, 716.022 225.250 C 716.005 224.267, 726.434 224, 764.893 224 C 808.555 224, 813.851 223.831, 814.393 222.418 C 815.512 219.503, 815.015 205.255, 813.518 197.338 C 809.256 174.794, 792.286 156.148, 769.500 148.972 C 760.540 146.151, 739.607 145.317, 730.500 147.420 M 1271.654 147.571 C 1261.500 149.839, 1254.928 152.562, 1246.792 157.873 C 1218.670 176.231, 1209.227 211.814, 1224.202 243 C 1231.827 258.879, 1247.925 271.903, 1266.459 277.186 C 1273.218 279.112, 1276.891 279.480, 1289.500 279.489 C 1302.445 279.498, 1305.527 279.179, 1312 277.159 C 1322.662 273.831, 1330.592 269.344, 1337.018 263 C 1343.046 257.051, 1348.722 248.275, 1347.350 247.027 C 1346.883 246.602, 1340.386 242.902, 1332.914 238.805 L 1319.328 231.356 1314.910 236.898 C 1306.605 247.315, 1292.888 251.435, 1279.484 247.538 C 1263.930 243.017, 1255.781 231.407, 1255.594 213.500 C 1255.427 197.564, 1261.878 186.219, 1274.412 180.403 C 1288.635 173.805, 1307.310 178.140, 1315.690 189.985 C 1317.236 192.170, 1318.911 193.967, 1319.413 193.979 C 1320.816 194.011, 1348 178.918, 1348 178.106 C 1348 176.777, 1342.183 168.209, 1338.555 164.193 C 1333.362 158.445, 1323.716 152.528, 1314.500 149.438 C 1307.681 147.151, 1304.433 146.702, 1292.500 146.399 C 1282.453 146.143, 1276.567 146.474, 1271.654 147.571 M 1409.500 147.482 C 1394.983 150.683, 1381.119 158.563, 1372.009 168.791 C 1365.910 175.638, 1359.687 187.902, 1357.442 197.500 C 1354.845 208.602, 1355.841 225.179, 1359.732 235.608 C 1370.298 263.931, 1394.829 280, 1427.500 280 C 1449.689 280, 1467.010 273.149, 1481.240 258.744 C 1492.901 246.942, 1498.957 231.298, 1498.985 212.910 C 1499.021 189.798, 1488.986 170.492, 1470.515 158.139 C 1462.044 152.473, 1455.546 149.813, 1444.700 147.573 C 1435.523 145.678, 1417.890 145.632, 1409.500 147.482 M 1580 146.670 C 1571.759 147.980, 1560.252 153.631, 1554.250 159.314 L 1551 162.392 1551 155.196 L 1551 148 1533 148 L 1515 148 1515 213 L 1515 278 1533.956 278 L 1552.913 278 1553.206 238.750 C 1553.497 199.875, 1553.523 199.450, 1555.876 194.243 C 1560.414 184.203, 1568.954 179.057, 1581.136 179.022 C 1587.581 179.003, 1589.607 179.436, 1594.128 181.798 C 1598.633 184.151, 1599.963 185.532, 1602.492 190.475 L 1605.500 196.354 1605.792 237.177 L 1606.084 278 1624.978 278 L 1643.872 278 1644.205 239.750 C 1644.529 202.631, 1644.606 201.331, 1646.825 195.792 C 1649.674 188.682, 1656.865 181.858, 1663.452 180.014 C 1666.161 179.255, 1670.957 178.927, 1675.277 179.204 C 1684.472 179.794, 1689.472 182.817, 1693.615 190.293 L 1696.500 195.500 1696.801 236.750 L 1697.103 278 1716.051 278 L 1735 278 1735 234.660 C 1735 194.773, 1734.843 190.705, 1733.025 183.596 C 1726.713 158.918, 1709.181 146, 1682 146 C 1676.731 146, 1669.738 146.682, 1666.460 147.515 C 1657.235 149.860, 1646.725 155.475, 1640.716 161.270 L 1635.292 166.500 1629.396 160.419 C 1619.843 150.567, 1607.463 145.896, 1591.540 146.136 C 1586.568 146.211, 1581.375 146.451, 1580 146.670 M 989 213 L 989 278 1008 278 L 1027 278 1027 213 L 1027 148 1008 148 L 989 148 989 213 M 741.500 175.034 C 728.426 176.882, 718.844 185.796, 715.472 199.250 L 714.783 202 747.003 202 L 779.223 202 778.527 198.250 C 775.611 182.518, 759.596 172.478, 741.500 175.034 M 890.326 177.988 C 880.759 180.009, 873.107 186.005, 868.717 194.923 C 865.658 201.138, 865.500 202.023, 865.500 213 C 865.500 224.072, 865.637 224.819, 868.850 231.347 C 874.927 243.691, 886.959 250.040, 901.670 248.666 C 913.788 247.535, 922.366 241.665, 927.386 231.072 C 930.311 224.899, 930.500 223.800, 930.500 212.979 C 930.500 201.977, 930.352 201.158, 927.215 194.785 C 923.680 187.604, 919.175 183.292, 911.799 180.029 C 906.636 177.745, 896.181 176.752, 890.326 177.988 M 1419.326 177.984 C 1409.934 179.977, 1401.748 186.795, 1397.395 196.253 C 1394.807 201.876, 1394.520 203.549, 1394.520 213 C 1394.520 222.401, 1394.815 224.140, 1397.337 229.617 C 1400.711 236.945, 1406.684 243.072, 1413.500 246.197 C 1417.531 248.045, 1420.245 248.491, 1427.500 248.495 C 1435.316 248.499, 1437.242 248.136, 1442.142 245.730 C 1454.376 239.721, 1460.334 229.040, 1460.398 213 C 1460.429 205.307, 1459.989 202.374, 1458.083 197.581 C 1453.346 185.667, 1443.374 178.432, 1430.500 177.568 C 1426.650 177.310, 1421.622 177.497, 1419.326 177.984 M 1173.625 234.469 C 1158.093 240.005, 1153.860 261.706, 1165.952 273.798 C 1170.567 278.413, 1176.731 280.376, 1184.622 279.742 C 1192.725 279.092, 1198.005 275.781, 1202.476 268.546 C 1205.123 264.264, 1205.492 262.771, 1205.433 256.577 C 1205.331 245.722, 1201.324 239.311, 1192 235.084 C 1186.761 232.709, 1179.266 232.458, 1173.625 234.469" stroke="none" fill="#284a59" fill-rule="evenodd"/>
</svg>
