<svg xmlns="http://www.w3.org/2000/svg" viewBox="0 0 4849.7466 2260.0801">
  <g fill="#ffffff" transform="matrix(.13333333 0 0 -.13333333 0 2260.08)">
    <path d="m6033.8 16785.8c2027.2 0 3582.81-495.9 4666.9-1487.8 1084.1-992 1626.1-2371.4 1626.1-4138.5 0-1767.05-528.4-3165.55-1585.5-4195.21-153.9-150.09-319.8-289.19-497.3-417.29 1230.6-517.3 2340.9-922.4 2938.5-1127.5h-2203.6c-3661.96 1186.4-11409.06 5373.9-3816.07 6620.6-1693.79-336.9-2462.99-807.4-2608.78-1344.8v-400.3c191.02-783.87 1440.23-1665.84 2955.8-2469.56 530.35 143.29 973.44 382.24 1329.05 716.06 623.21 585.38 935.01 1436.53 935.01 2553.1 0 1116.5-311.8 1975.6-935.01 2577.2-623.39 601.7-1580.01 902.5-2870.14 902.5h-1414.71v-2784.5c-198.93-38-391.55-80.4-577.47-126.6-4104.654-1292.3-4180.896-4083.12-348.83-6243.7-558.16 0-1116.22 0-1674.38 0-2658.007 1829.17-2571.257 4158.67 64.04 5538.8v5827.5zm1518.47-11366.3c-789.2 340-1499.66 687.8-2118.35 1039.5h-872.97c548.26-351.7 1189.07-699.5 1910.13-1039.5zm-2707.83 1393.3c-506.93 322.6-933.9 647.4-1270.62 971.42h-607.39c271.77-324.02 633.6-648.82 1075.99-971.42zm-1602.14 1325.44c-272.37 326.41-448.99 651.42-519.33 971.42h-342.02c6.2-320 117.77-645.01 324.81-971.42zm-553.35 1325.46c14.5 467.1 269.27 921.6 798.31 1354.1-615.59-432.5-961.42-887-1069.49-1354.1z"/>
    <path d="m28663.4 14679.1c-430.9 0-770.9-102.2-1019.6-306.7-248.6-204.4-373-475.2-373-812.3s152-605.2 456-804.2c303.9-198.9 1005.8-433.8 2105.6-704.5 803.7-198.2 2231.4-631.2 2476.5-1450.6 534.8-1787.12-4405.6-4298.6-7129.9-5181.3h-2247c467.5 160.6 1242.9 441 2145 801.1-332.6 229.4-657 490.1-972.9 782.13l1541.8 1890.12c795.8-697.24 1553.5-1172.07 2272.9-1425.08 955.2 466.45 1863.4 971.27 2556.5 1477.52-68.2 101.2-158.2 191.4-269.8 270.98-287.3 204.46-856.7 411.57-1707.8 621.75-1348.5 320.58-2334.9 737.68-2959.5 1251.68-624.4 514-936.6 1320.8-936.6 2420.6 0 1099.9 395 1948.1 1185.3 2544.9 790.3 596.9 1776.9 895.4 2959.4 895.4 773.7 0 1547.6-132.6 2321.3-397.9 773.8-265.3 1448-641.1 2022.8-1127.6l-1309.8-1889.9c-1006 762.7-2044.9 1143.9-3117.2 1143.9zm3392.5-2813.8c4443.6-1279.8 4605.8-4197.58 618.2-6445.8h1707.3c3332.6 2293.54 2433.5 5358.4-2325.5 6445.8zm-3383.1-6445.8c804.6 346.9 1529.1 701.3 2159.8 1059.8h890c-558.8-358.5-1212.2-712.9-1947.5-1059.8zm2760.9 1420.6c516.9 328.92 952.1 660.1 1295.5 990.67h619.3c-277.1-330.57-646-661.75-1097.2-990.67zm1633.4 1351.43c278 333.01 457.9 664.18 529.5 990.45h349c-6.6-326.27-120.2-657.44-331.4-990.45zm564.2 1351.43c-14.7 476.24-274.4 939.64-813.7 1380.64 627.6-441 980-904.4 1090.2-1380.64z"/>
    <path d="m23179.2 15395.6-1298.2-1860.4c-718 763.9-1971.2 1050.7-2994.8 1050.7-2031.8 0-3376.2-1451.4-3376.2-3483.2 0-2047.2 1344.4-3483.27 3376.2-3483.27 779.2 0 1543 168.05 2230.5 534.71v1756.89h-1940.2v2199.97h4231.8v-5652.6c-1405.5-748.6-2948.5-1038.9-4522.1-1038.9-3406.8 0-5851.2 2199.93-5851.2 5683.2 0 3467.9 2444.4 5683.1 5851.2 5683.1 1588.9 0 3116.6-320.8 4293-1390.2"/>
  </g>
  <text transform="matrix(1.3333333 0 0 1.3333333 .961459 2038.5333)" font-family="'Avenir Next Condensed', Arial, sans-serif" font-size="362" font-weight="600" letter-spacing="-3">
    <tspan fill="#ffffff" x="0" y="0">All States Auto Title Service</tspan>
  </text>
</svg>
